<svg xmlns="http://www.w3.org/2000/svg" width="800" height="800" viewBox="-1.22 -1.22 2.44 2.44">
  <rect x="-1.22" y="-1.22" width="2.44" height="2.44" fill="#0b0c1c" />
  <line x1="0" y1="-1" x2="0.9510565162951535" y2="-0.30901699437494745" stroke="#ff5d63" stroke-width="0.032" stroke-linecap="round" />
  <line x1="0" y1="-1" x2="0" y2="-0.66" stroke="#4ade80" stroke-width="0.032" stroke-linecap="round" />
  <line x1="0" y1="-1" x2="-0.9510565162951536" y2="-0.30901699437494723" stroke="#60a5fa" stroke-width="0.032" stroke-linecap="round" />
  <line x1="-0.587785252292473" y1="0.8090169943749475" x2="0.5877852522924732" y2="0.8090169943749473" stroke="#ff5d63" stroke-width="0.032" stroke-linecap="round" />
  <line x1="-0.587785252292473" y1="0.8090169943749475" x2="-0.3879382665130322" y2="0.5339512162874653" stroke="#60a5fa" stroke-width="0.032" stroke-linecap="round" />
  <line x1="-0.587785252292473" y1="0.8090169943749475" x2="-0.9510565162951536" y2="-0.30901699437494723" stroke="#4ade80" stroke-width="0.032" stroke-linecap="round" />
  <line x1="-0.23511410091698937" y1="-0.32360679774997897" x2="-0.11755705045849468" y2="-0.16180339887498948" stroke="#ff5d63" stroke-width="0.032" stroke-linecap="round" />
  <line x1="-0.23511410091698937" y1="-0.32360679774997897" x2="0" y2="-0.66" stroke="#60a5fa" stroke-width="0.032" stroke-linecap="round" />
  <line x1="-0.23511410091698937" y1="-0.32360679774997897" x2="-0.6276973007548015" y2="-0.20395121628746518" stroke="#4ade80" stroke-width="0.032" stroke-linecap="round" />
  <line x1="-0.3804226065180614" y1="0.12360679774997903" x2="-0.1902113032590307" y2="0.061803398874989514" stroke="#4ade80" stroke-width="0.032" stroke-linecap="round" />
  <line x1="-0.3804226065180614" y1="0.12360679774997903" x2="-0.3879382665130322" y2="0.5339512162874653" stroke="#ff5d63" stroke-width="0.032" stroke-linecap="round" />
  <line x1="-0.3804226065180614" y1="0.12360679774997903" x2="-0.6276973007548015" y2="-0.20395121628746518" stroke="#60a5fa" stroke-width="0.032" stroke-linecap="round" />
  <line x1="0.6276973007548013" y1="-0.20395121628746532" x2="0.9510565162951535" y2="-0.30901699437494745" stroke="#60a5fa" stroke-width="0.032" stroke-linecap="round" />
  <line x1="0.6276973007548013" y1="-0.20395121628746532" x2="0.23511410091698925" y2="-0.323606797749979" stroke="#4ade80" stroke-width="0.032" stroke-linecap="round" />
  <line x1="0.6276973007548013" y1="-0.20395121628746532" x2="0.3804226065180615" y2="0.12360679774997894" stroke="#ff5d63" stroke-width="0.032" stroke-linecap="round" />
  <line x1="0.38793826651303237" y1="0.5339512162874652" x2="0.5877852522924732" y2="0.8090169943749473" stroke="#60a5fa" stroke-width="0.032" stroke-linecap="round" />
  <line x1="0.38793826651303237" y1="0.5339512162874652" x2="4.898587196589413e-17" y2="0.4" stroke="#ff5d63" stroke-width="0.032" stroke-linecap="round" />
  <line x1="0.38793826651303237" y1="0.5339512162874652" x2="0.3804226065180615" y2="0.12360679774997894" stroke="#4ade80" stroke-width="0.032" stroke-linecap="round" />
  <line x1="0.11755705045849463" y1="-0.1618033988749895" x2="-0.11755705045849468" y2="-0.16180339887498948" stroke="#4ade80" stroke-width="0.032" stroke-linecap="round" />
  <line x1="0.11755705045849463" y1="-0.1618033988749895" x2="0.23511410091698925" y2="-0.323606797749979" stroke="#60a5fa" stroke-width="0.032" stroke-linecap="round" />
  <line x1="0.11755705045849463" y1="-0.1618033988749895" x2="0.19021130325903074" y2="0.06180339887498947" stroke="#ff5d63" stroke-width="0.032" stroke-linecap="round" />
  <line x1="2.4492935982947065e-17" y1="0.2" x2="-0.1902113032590307" y2="0.061803398874989514" stroke="#ff5d63" stroke-width="0.032" stroke-linecap="round" />
  <line x1="2.4492935982947065e-17" y1="0.2" x2="4.898587196589413e-17" y2="0.4" stroke="#60a5fa" stroke-width="0.032" stroke-linecap="round" />
  <line x1="2.4492935982947065e-17" y1="0.2" x2="0.19021130325903074" y2="0.06180339887498947" stroke="#4ade80" stroke-width="0.032" stroke-linecap="round" />
  <line x1="0.9510565162951535" y1="-0.30901699437494745" x2="0.5877852522924732" y2="0.8090169943749473" stroke="#4ade80" stroke-width="0.032" stroke-linecap="round" />
  <line x1="-0.11755705045849468" y1="-0.16180339887498948" x2="-0.1902113032590307" y2="0.061803398874989514" stroke="#60a5fa" stroke-width="0.032" stroke-linecap="round" />
  <line x1="0" y1="-0.66" x2="0.23511410091698925" y2="-0.323606797749979" stroke="#ff5d63" stroke-width="0.032" stroke-linecap="round" />
  <line x1="-0.3879382665130322" y1="0.5339512162874653" x2="4.898587196589413e-17" y2="0.4" stroke="#4ade80" stroke-width="0.032" stroke-linecap="round" />
  <line x1="-0.9510565162951536" y1="-0.30901699437494723" x2="-0.6276973007548015" y2="-0.20395121628746518" stroke="#ff5d63" stroke-width="0.032" stroke-linecap="round" />
  <line x1="0.3804226065180615" y1="0.12360679774997894" x2="0.19021130325903074" y2="0.06180339887498947" stroke="#60a5fa" stroke-width="0.032" stroke-linecap="round" />
  <circle cx="0" cy="-1" r="0.032" fill="#9095b0" />
  <circle cx="-0.587785252292473" cy="0.8090169943749475" r="0.032" fill="#9095b0" />
  <circle cx="-0.23511410091698937" cy="-0.32360679774997897" r="0.032" fill="#9095b0" />
  <circle cx="-0.3804226065180614" cy="0.12360679774997903" r="0.032" fill="#9095b0" />
  <circle cx="0.6276973007548013" cy="-0.20395121628746532" r="0.032" fill="#9095b0" />
  <circle cx="0.38793826651303237" cy="0.5339512162874652" r="0.032" fill="#9095b0" />
  <circle cx="0.11755705045849463" cy="-0.1618033988749895" r="0.032" fill="#9095b0" />
  <circle cx="2.4492935982947065e-17" cy="0.2" r="0.032" fill="#9095b0" />
  <circle cx="0.9510565162951535" cy="-0.30901699437494745" r="0.032" fill="#9095b0" />
  <circle cx="0.5877852522924732" cy="0.8090169943749473" r="0.032" fill="#9095b0" />
  <circle cx="-0.11755705045849468" cy="-0.16180339887498948" r="0.032" fill="#9095b0" />
  <circle cx="-0.1902113032590307" cy="0.061803398874989514" r="0.032" fill="#9095b0" />
  <circle cx="0" cy="-0.66" r="0.032" fill="#9095b0" />
  <circle cx="-0.3879382665130322" cy="0.5339512162874653" r="0.032" fill="#9095b0" />
  <circle cx="0.23511410091698925" cy="-0.323606797749979" r="0.032" fill="#9095b0" />
  <circle cx="4.898587196589413e-17" cy="0.4" r="0.032" fill="#9095b0" />
  <circle cx="-0.9510565162951536" cy="-0.30901699437494723" r="0.032" fill="#9095b0" />
  <circle cx="-0.6276973007548015" cy="-0.20395121628746518" r="0.032" fill="#9095b0" />
  <circle cx="0.3804226065180615" cy="0.12360679774997894" r="0.032" fill="#9095b0" />
  <circle cx="0.19021130325903074" cy="0.06180339887498947" r="0.032" fill="#9095b0" />
</svg>
